<svg width="25" height="24" viewBox="0 0 25 24" fill="none" xmlns="http://www.w3.org/2000/svg">
<path fill-rule="evenodd" clip-rule="evenodd" d="M11.3307 0C14.3083 0 16.7307 2.388 16.7307 5.3232V6.4416C16.7307 6.9384 16.3217 7.3416 15.8177 7.3416C15.3137 7.3416 14.9047 6.9384 14.9047 6.4416V5.3232C14.9047 3.3792 13.3015 1.8 11.3307 1.8H5.39633C3.42794 1.8 1.82596 3.3792 1.82596 5.3232V18.678C1.82596 20.6208 3.42794 22.2 5.39633 22.2H11.3441C13.3064 22.2 14.9047 20.6256 14.9047 18.6912V17.5596C14.9047 17.0628 15.3137 16.6596 15.8177 16.6596C16.3217 16.6596 16.7307 17.0628 16.7307 17.5596V18.6912C16.7307 21.6192 14.3131 24 11.3441 24H5.39633C2.42123 24 0 21.6132 0 18.678V5.3232C0 2.388 2.42123 0 5.39633 0H11.3307ZM21.1667 7.8648L24.731 11.3628C24.7628 11.3939 24.7912 11.4262 24.8173 11.4605L24.731 11.3628C24.7741 11.4047 24.8125 11.4505 24.8457 11.4994C24.8604 11.5215 24.8745 11.5444 24.8876 11.5679C24.8982 11.5863 24.908 11.6055 24.9171 11.625C24.9248 11.6422 24.9321 11.6594 24.939 11.6769C24.9482 11.6997 24.9562 11.7232 24.9632 11.7469C24.9685 11.7656 24.9734 11.7843 24.9777 11.8032C24.9831 11.8261 24.9874 11.8492 24.9908 11.8724C24.9927 11.8875 24.9946 11.9034 24.996 11.9193C24.9988 11.9467 25 11.9733 25 12L24.9938 12.0744L24.9913 12.1221C24.991 12.1241 24.9907 12.1261 24.9904 12.1282L25 12C25 12.0666 24.9925 12.1326 24.978 12.1967C24.9734 12.2157 24.9685 12.2344 24.9631 12.2528C24.9562 12.2768 24.9482 12.3003 24.9392 12.3233C24.9321 12.3406 24.9248 12.3578 24.9169 12.3748C24.908 12.3945 24.8982 12.4137 24.8878 12.4326C24.8745 12.4556 24.8604 12.4785 24.8453 12.5007C24.8367 12.5138 24.8274 12.5268 24.8176 12.5396C24.7886 12.5772 24.7571 12.6125 24.7229 12.6453L21.1667 16.1364C20.989 16.3116 20.7552 16.3992 20.5227 16.3992C20.289 16.3992 20.0541 16.3116 19.8763 16.134C19.5209 15.7812 19.5221 15.2124 19.8788 14.862L21.875 12.9H9.42903C8.92507 12.9 8.51605 12.4968 8.51605 12C8.51605 11.5032 8.92507 11.1 9.42903 11.1H21.8775L19.8788 9.1392C19.5221 8.7888 19.5197 8.22 19.8763 7.8672C20.2318 7.5144 20.8088 7.5144 21.1667 7.8648Z" fill="#FCDEDE"/>
</svg>